<svg width="34" height="30" viewBox="0 0 34 30" fill="none" xmlns="http://www.w3.org/2000/svg">
<g filter="url(#filter0_d_764_2146)">
<path fill-rule="evenodd" clip-rule="evenodd" d="M26.4412 9.05531C27.1306 8.7933 27.9398 8.93887 28.4493 9.46288C28.9888 9.9869 29.1387 10.7438 28.8689 11.4134L24.7328 21.4862C24.3432 22.4178 23.444 23 22.395 23H11.605C10.556 23 9.65685 22.4178 9.26721 21.4862L5.13107 11.4134C4.86132 10.7438 5.01118 9.95779 5.55068 9.46288C6.09018 8.93887 6.86945 8.7933 7.55881 9.05531L11.4552 10.5691L15.3815 3.90247C15.7112 3.34935 16.3406 3 17 3C17.6594 3 18.2888 3.34935 18.6185 3.90247L22.5448 10.5691L26.4412 9.05531ZM18.0191 18.8661L20.207 15.8384C20.5067 15.4017 20.5067 14.8486 20.207 14.441L18.0191 11.4134C17.5395 10.7729 16.4605 10.7729 15.981 11.4134L13.793 14.441C13.4933 14.8777 13.4933 15.4309 13.793 15.8384L15.981 18.8661C16.2207 19.1863 16.6104 19.3901 17 19.3901C17.3896 19.3901 17.7793 19.1572 18.0191 18.8661Z" fill="#FFCD1C"/>
</g>
<defs>
<filter id="filter0_d_764_2146" x="0.569671" y="0.784835" width="32.8607" height="28.8607" filterUnits="userSpaceOnUse" color-interpolation-filters="sRGB">
<feFlood flood-opacity="0" result="BackgroundImageFix"/>
<feColorMatrix in="SourceAlpha" type="matrix" values="0 0 0 0 0 0 0 0 0 0 0 0 0 0 0 0 0 0 127 0" result="hardAlpha"/>
<feOffset dy="2.21516"/>
<feGaussianBlur stdDeviation="2.21516"/>
<feComposite in2="hardAlpha" operator="out"/>
<feColorMatrix type="matrix" values="0 0 0 0 1 0 0 0 0 1 0 0 0 0 1 0 0 0 1 0"/>
<feBlend mode="normal" in2="BackgroundImageFix" result="effect1_dropShadow_764_2146"/>
<feBlend mode="normal" in="SourceGraphic" in2="effect1_dropShadow_764_2146" result="shape"/>
</filter>
</defs>
</svg>
